<svg width="32" height="32" viewBox="0 0 32 32" fill="none" xmlns="http://www.w3.org/2000/svg">
  <!-- Fundo circular com gradiente azul para verde-água -->
  <circle cx="16" cy="16" r="16" fill="url(#bgGradient)" />
  
  <!-- Letra S estilizada como cavalo-marinho/onda -->
  <path d="M10 10C10 8 12 6 14 6C16 6 18 8 18 10C18 12 16 14 14 14C12 14 10 16 10 18C10 20 12 22 14 22C16 22 18 20 18 18" 
        stroke="white" 
        stroke-width="2.5" 
        stroke-linecap="round" 
        fill="none" />
  
  <!-- Detalhes da onda/cavalo-marinho -->
  <path d="M14 8C15 7 16 7 17 8" 
        stroke="white" 
        stroke-width="1.5" 
        stroke-linecap="round" />
  
  <path d="M14 16C15 17 16 17 17 16" 
        stroke="white" 
        stroke-width="1.5" 
        stroke-linecap="round" />
  
  <!-- Pequenos detalhes decorativos -->
  <circle cx="12" cy="12" r="1" fill="white" opacity="0.8" />
  <circle cx="20" cy="20" r="1" fill="white" opacity="0.8" />
  
  <!-- Gradientes -->
  <defs>
    <linearGradient id="bgGradient" x1="0%" y1="0%" x2="100%" y2="100%">
      <stop offset="0%" style="stop-color:#1e40af;stop-opacity:1" />
      <stop offset="30%" style="stop-color:#0891b2;stop-opacity:1" />
      <stop offset="70%" style="stop-color:#06b6d4;stop-opacity:1" />
      <stop offset="100%" style="stop-color:#22d3ee;stop-opacity:1" />
    </linearGradient>
  </defs>
</svg> 